<svg xmlns="http://www.w3.org/2000/svg" width="1280" height="640" viewBox="0 0 1280 640">
  <defs>
    <linearGradient id="bg" x1="0" x2="1" y1="0" y2="1">
      <stop offset="0" stop-color="#0b0f14"/>
      <stop offset="1" stop-color="#0f1722"/>
    </linearGradient>
    <linearGradient id="accent" x1="0" x2="1">
      <stop offset="0" stop-color="#7aa2f7"/>
      <stop offset="1" stop-color="#2ac3de"/>
    </linearGradient>
    <filter id="softShadow" x="-20%" y="-20%" width="140%" height="140%">
      <feDropShadow dx="0" dy="10" stdDeviation="12" flood-color="#000000" flood-opacity="0.35"/>
    </filter>
  </defs>

  <rect width="1280" height="640" fill="url(#bg)"/>

  <g opacity="0.08">
    <path d="M0 80H1280M0 160H1280M0 240H1280M0 320H1280M0 400H1280M0 480H1280M0 560H1280" stroke="#ffffff" stroke-width="1"/>
    <path d="M80 0V640M160 0V640M240 0V640M320 0V640M400 0V640M480 0V640M560 0V640M640 0V640M720 0V640M800 0V640M880 0V640M960 0V640M1040 0V640M1120 0V640M1200 0V640" stroke="#ffffff" stroke-width="1"/>
  </g>

  <g filter="url(#softShadow)">
    <rect x="80" y="110" rx="18" ry="18" width="1120" height="240" fill="#0b1220" opacity="0.92" stroke="#1f2a3a"/>
    <rect x="80" y="360" rx="18" ry="18" width="1120" height="140" fill="#0b1220" opacity="0.78" stroke="#1f2a3a"/>
  </g>

  <rect x="80" y="110" width="1120" height="8" fill="url(#accent)" opacity="0.95"/>

  <g transform="translate(108,160)">
    <rect x="0" y="0" rx="14" ry="14" width="220" height="148" fill="#0f1a2a" stroke="#2a3a52" stroke-width="2"/>
    <rect x="16" y="18" rx="8" ry="8" width="188" height="28" fill="#0b1220" stroke="#2a3a52"/>
    <circle cx="32" cy="32" r="5" fill="#7aa2f7"/>
    <circle cx="52" cy="32" r="5" fill="#2ac3de"/>
    <circle cx="72" cy="32" r="5" fill="#9ece6a"/>

    <rect x="16" y="60" rx="8" ry="8" width="188" height="28" fill="#0b1220" stroke="#2a3a52"/>
    <rect x="16" y="102" rx="8" ry="8" width="188" height="28" fill="#0b1220" stroke="#2a3a52"/>

    <g transform="translate(250,42)">
      <rect x="0" y="0" rx="14" ry="14" width="280" height="64" fill="#0f1a2a" stroke="#2a3a52" stroke-width="2"/>
      <text x="20" y="40" font-family="ui-monospace, SFMono-Regular, Menlo, Monaco, Consolas, 'Liberation Mono', 'Courier New', monospace"
            font-size="22" fill="#c0caf5">&gt; armarserver start</text>
    </g>
  </g>

  <text x="650" y="200"
        font-family="ui-sans-serif, system-ui, -apple-system, Segoe UI, Roboto, Arial"
        font-size="44" font-weight="700" fill="#e6edf3">
    Arma Reforger Server
  </text>
  <text x="650" y="248"
        font-family="ui-sans-serif, system-ui, -apple-system, Segoe UI, Roboto, Arial"
        font-size="26" font-weight="600" fill="#c0caf5" opacity="0.95">
    LinuxGSM • конфіги • сценарії • моди
  </text>

  <g font-family="ui-sans-serif, system-ui, -apple-system, Segoe UI, Roboto, Arial" fill="#c0caf5" opacity="0.9">
    <text x="120" y="405" font-size="22">• SOP/PLAN: розгортання → порти → server.json → сценарії</text>
    <text x="120" y="440" font-size="22">• Modding: Workbench, залежності, публікація, оновлення</text>
    <text x="120" y="475" font-size="22">• PvP 128: Conflict-логістика + POI-бази + ретранслятори</text>
  </g>

  <g opacity="0.85">
    <rect x="80" y="530" rx="14" ry="14" width="1120" height="70" fill="#0b1220" stroke="#1f2a3a"/>
    <text x="110" y="575"
          font-family="ui-monospace, SFMono-Regular, Menlo, Monaco, Consolas, 'Liberation Mono', 'Courier New', monospace"
          font-size="20" fill="#e6edf3">repo: armarserver • linuxgsm • config.json • workshop mods</text>
  </g>
</svg>
